<svg width="336" height="336" viewBox="0 0 336 336" fill="none" xmlns="http://www.w3.org/2000/svg">
<path d="M197 272C198.66 272 200 270.66 200 269V226.49C200 224.9 199.37 223.37 198.24 222.25L185.75 209.76C184.62 208.63 183.1 208 181.51 208H154.48C152.89 208 151.36 208.63 150.24 209.76L137.75 222.25C136.62 223.38 135.99 224.9 135.99 226.49V269C135.99 270.66 137.33 272 138.99 272H197Z" fill="#0ECAD4"/>
<path d="M222.24 137.76L209.75 150.25C208.62 151.38 207.99 152.9 207.99 154.49V181.52C207.99 183.11 208.62 184.64 209.75 185.76L222.24 198.25C223.37 199.38 224.89 200.01 226.48 200.01H268.99C270.65 200.01 271.99 198.67 271.99 197.01V139.01C271.99 137.35 270.65 136.01 268.99 136.01H226.48C224.89 136.01 223.36 136.64 222.24 137.77V137.76Z" fill="#0ECAD4"/>
<path d="M139 64C137.34 64 136 65.34 136 67V109.51C136 111.1 136.63 112.63 137.76 113.75L150.25 126.24C151.38 127.37 152.9 128 154.49 128H181.52C183.11 128 184.64 127.37 185.76 126.24L198.25 113.75C199.38 112.62 200.01 111.1 200.01 109.51V67C200.01 65.34 198.67 64 197.01 64H139Z" fill="#0ECAD4"/>
<path d="M269 208H226.49C224.9 208 223.37 208.63 222.25 209.76L209.76 222.25C208.63 223.38 208 224.9 208 226.49V269C208 270.66 209.34 272 211 272H269C270.66 272 272 270.66 272 269V211C272 209.34 270.66 208 269 208Z" fill="#0ECAD4"/>
<path d="M125 64H82.49C80.89 64 79.37 64.63 78.24 65.76L65.76 78.24C64.63 79.37 64 80.89 64 82.49V125C64 126.66 65.34 128 67 128H109.51C111.1 128 112.63 127.37 113.75 126.24L126.24 113.75C127.37 112.62 128 111.1 128 109.51V67C128 65.34 126.66 64 125 64Z" fill="#0ECAD4"/>
<path d="M208 67V109.51C208 111.1 208.63 112.63 209.76 113.75L222.25 126.24C223.38 127.37 224.9 128 226.49 128H269C270.66 128 272 126.66 272 125V67C272 65.34 270.66 64 269 64H211C209.34 64 208 65.34 208 67Z" fill="#0ECAD4"/>
<path d="M168 184C159.16 184 152 176.84 152 168C152 159.16 159.17 152 168 152C176.83 152 184 159.16 184 168C184 176.84 176.83 184 168 184Z" fill="#0ECAD4"/>
<path d="M64 211V269C64 270.66 65.34 272 67 272H125C126.66 272 128 270.66 128 269V226.49C128 224.9 127.37 223.37 126.24 222.25L113.75 209.76C112.62 208.63 111.1 208 109.51 208H67C65.34 208 64 209.34 64 211Z" fill="#0ECAD4"/>
<path d="M126.24 150.24L113.75 137.75C112.62 136.62 111.1 135.99 109.51 135.99H67C65.34 136 64 137.34 64 139V197C64 198.66 65.34 200 67 200H110.2C111.79 200 113.32 199.37 114.44 198.24L126.24 186.45C127.37 185.32 128 183.8 128 182.21V154.49C128 152.9 127.37 151.37 126.24 150.25V150.24Z" fill="#0ECAD4"/>
</svg>
