<svg width="672" height="788" viewBox="0 0 672 788" fill="none" xmlns="http://www.w3.org/2000/svg">
<path d="M562.66 612.31C562.34 611.56 561.89 610.9 561.33 610.33C560.76 609.76 560.1 609.32 559.35 609C558.6 608.68 557.79 608.52 556.94 608.52C556.09 608.52 555.28 608.68 554.53 609C553.78 609.32 553.12 609.77 552.55 610.33C551.98 610.9 551.54 611.56 551.21 612.31C550.89 613.06 550.73 613.87 550.73 614.72C550.73 615.57 550.89 616.38 551.21 617.13C551.53 617.88 551.98 618.54 552.55 619.11C553.12 619.68 553.78 620.12 554.53 620.44C555.28 620.76 556.08 620.92 556.94 620.92C557.8 620.92 558.6 620.76 559.35 620.44C560.1 620.12 560.76 619.67 561.33 619.11C561.9 618.54 562.34 617.88 562.66 617.13C562.98 616.38 563.14 615.57 563.14 614.72C563.14 613.87 562.98 613.06 562.66 612.31ZM561.31 617.27C560.85 618.03 560.25 618.64 559.48 619.1C558.72 619.56 557.87 619.78 556.94 619.78C556.01 619.78 555.16 619.55 554.4 619.1C553.64 618.64 553.03 618.04 552.57 617.27C552.11 616.51 551.89 615.66 551.89 614.73C551.89 613.8 552.12 612.95 552.57 612.19C553.03 611.43 553.63 610.82 554.4 610.36C555.16 609.9 556.01 609.68 556.94 609.68C557.87 609.68 558.72 609.91 559.48 610.36C560.24 610.82 560.85 611.42 561.31 612.19C561.77 612.95 561.99 613.8 561.99 614.73C561.99 615.66 561.76 616.51 561.31 617.27Z" fill="white"/>
<path d="M558.38 615.24C558.38 615.24 558.38 615.24 558.39 615.24C558.67 615.09 558.9 614.87 559.09 614.59C559.27 614.31 559.37 613.97 559.37 613.58C559.37 613.19 559.28 612.87 559.1 612.6C558.92 612.33 558.7 612.13 558.42 611.99C558.15 611.85 557.87 611.78 557.58 611.78H554.97C554.9 611.78 554.84 611.84 554.84 611.91V617.37C554.84 617.44 554.9 617.5 554.97 617.5H555.7C555.77 617.5 555.83 617.44 555.83 617.37V615.45H557.4L558.44 617.43C558.44 617.43 558.51 617.5 558.56 617.5H559.38C559.48 617.5 559.54 617.4 559.49 617.31L558.37 615.22L558.38 615.24ZM557.96 614.4C557.75 614.59 557.51 614.68 557.25 614.68H555.83V612.58H557.27C557.52 612.58 557.75 612.66 557.96 612.81C558.17 612.97 558.27 613.22 558.27 613.59C558.27 613.96 558.17 614.21 557.96 614.4Z" fill="white"/>
<path d="M200.1 608H187.67C187.42 608 187.2 608.17 187.14 608.42C186.3 612.35 179.9 642.36 179.54 644.87C179.51 645.06 179.4 645.06 179.37 644.87C178.97 642.35 172.05 612.3 171.16 608.41C171.1 608.17 170.89 608 170.64 608H159.04C158.79 608 158.57 608.17 158.52 608.41C157.62 612.3 150.68 642.35 150.29 644.87C150.25 645.1 150.12 645.1 150.08 644.87C149.71 642.35 143.34 612.35 142.5 608.42C142.45 608.17 142.23 608 141.97 608H129.54C129.19 608 128.93 608.34 129.02 608.68L142.54 659.3C142.6 659.54 142.82 659.7 143.06 659.7H156.13C156.38 659.7 156.6 659.53 156.65 659.29C157.47 655.83 163.22 631.61 164.52 625.94C164.58 625.66 164.98 625.66 165.04 625.94C166.36 631.6 172.17 655.84 173 659.29C173.06 659.53 173.27 659.7 173.52 659.7H186.56C186.8 659.7 187.02 659.54 187.08 659.3L200.6 608.68C200.69 608.34 200.43 608 200.08 608H200.1Z" fill="white"/>
<path d="M240.32 610.26C237.5 608.76 234.14 608 230.26 608H210.16C209.86 608 209.62 608.24 209.62 608.54V659.16C209.62 659.46 209.86 659.7 210.16 659.7H221.33C221.63 659.7 221.87 659.46 221.87 659.16V643.57H229.91C233.87 643.57 237.28 642.83 240.15 641.35C243.02 639.87 245.23 637.81 246.78 635.17C248.33 632.53 249.11 629.43 249.11 625.87C249.11 622.31 248.35 619.22 246.84 616.54C245.32 613.86 243.16 611.76 240.33 610.26H240.32ZM236.49 630.07C235.84 631.27 234.87 632.21 233.57 632.88C232.27 633.55 230.67 633.89 228.75 633.89H221.87V617.93H228.71C230.63 617.93 232.24 618.25 233.55 618.9C234.86 619.55 235.83 620.47 236.48 621.66C237.13 622.85 237.45 624.26 237.45 625.88C237.45 627.5 237.13 628.88 236.48 630.08L236.49 630.07Z" fill="white"/>
<path d="M305.79 614.4C303.78 612.37 301.51 610.86 299 609.87C296.48 608.88 293.86 608.38 291.14 608.38C286.82 608.38 283.02 609.49 279.75 611.71C276.48 613.93 273.93 616.98 272.11 620.86C270.29 624.74 269.38 629.18 269.38 634.18C269.38 639.18 270.31 643.61 272.16 647.46C274.01 651.31 276.63 654.32 280.02 656.5C283.41 658.68 287.43 659.76 292.08 659.76C295.43 659.76 298.39 659.22 300.96 658.14C303.54 657.06 305.67 655.63 307.38 653.86C308.93 652.24 310.1 650.49 310.88 648.63C311 648.34 310.84 648.01 310.54 647.92L305.82 646.42C305.56 646.34 305.28 646.47 305.17 646.72C304.58 648 303.75 649.19 302.68 650.29C301.48 651.52 300 652.5 298.24 653.24C296.48 653.98 294.44 654.35 292.13 654.35C288.73 654.35 285.77 653.54 283.27 651.93C280.77 650.32 278.84 648.05 277.48 645.14C276.21 642.42 275.54 639.27 275.45 635.7H311.75C312.05 635.7 312.29 635.46 312.29 635.16V633.08C312.29 628.88 311.71 625.22 310.56 622.11C309.41 619 307.82 616.43 305.81 614.41L305.79 614.4ZM277.4 622.85C278.72 620.13 280.55 617.94 282.91 616.28C285.26 614.62 288.01 613.79 291.15 613.79C294.29 613.79 297.03 614.6 299.28 616.23C301.53 617.86 303.26 620.08 304.48 622.89C305.47 625.18 306.05 627.71 306.23 630.48H275.48C275.64 627.74 276.28 625.19 277.42 622.84L277.4 622.85Z" fill="white"/>
<path d="M353.3 610.49C350.77 609.08 347.82 608.38 344.44 608.38C340.68 608.38 337.34 609.34 334.43 611.27C332.1 612.81 330.27 615.12 328.94 618.19L328.91 609.59C328.91 609.29 328.67 609.05 328.37 609.05H323.63C323.33 609.05 323.09 609.29 323.09 609.59V658.16C323.09 658.46 323.33 658.7 323.63 658.7H328.59C328.89 658.7 329.13 658.46 329.13 658.16V627.75C329.13 624.91 329.73 622.44 330.93 620.36C332.13 618.27 333.76 616.67 335.84 615.56C337.91 614.45 340.25 613.89 342.86 613.89C346.68 613.89 349.73 615.07 352.01 617.42C354.29 619.77 355.43 622.98 355.43 627.03V658.15C355.43 658.45 355.67 658.69 355.97 658.69H360.89C361.19 658.69 361.43 658.45 361.43 658.15V626.58C361.43 622.64 360.71 619.33 359.28 616.63C357.84 613.94 355.86 611.89 353.33 610.48L353.3 610.49Z" fill="white"/>
<path d="M413.47 609.04H408.69C408.39 609.04 408.15 609.28 408.15 609.58V618.59H407.53C406.88 617.08 405.94 615.53 404.71 613.95C403.48 612.37 401.86 611.04 399.85 609.98C397.84 608.91 395.32 608.38 392.3 608.38C388.24 608.38 384.68 609.45 381.6 611.58C378.52 613.71 376.12 616.68 374.41 620.48C372.69 624.28 371.83 628.72 371.83 633.78C371.83 638.84 372.7 643.19 374.45 646.84C376.2 650.48 378.6 653.28 381.67 655.23C384.73 657.18 388.23 658.16 392.17 658.16C395.13 658.16 397.62 657.68 399.63 656.72C401.64 655.76 403.28 654.53 404.54 653.03C405.8 651.54 406.75 650.02 407.4 648.48H407.98V659.63C407.98 664.19 406.65 667.56 403.98 669.73C401.32 671.91 397.79 672.99 393.41 672.99C390.66 672.99 388.33 672.61 386.44 671.86C384.55 671.1 383 670.13 381.8 668.93C380.75 667.88 379.89 666.8 379.21 665.69C379.05 665.43 378.73 665.35 378.47 665.5L374.4 667.97C374.16 668.12 374.06 668.44 374.2 668.69C375.16 670.46 376.44 672.04 378.05 673.43C379.8 674.94 381.95 676.13 384.51 677C387.07 677.87 390.04 678.31 393.41 678.31C397.38 678.31 400.91 677.65 404.02 676.33C407.13 675.01 409.57 672.99 411.35 670.27C413.13 667.55 414.01 664.08 414.01 659.88V609.58C414.01 609.28 413.77 609.04 413.47 609.04ZM406.28 643.88C405.1 646.74 403.39 648.93 401.15 650.45C398.91 651.98 396.21 652.74 393.05 652.74C389.89 652.74 387.08 651.93 384.84 650.32C382.59 648.71 380.87 646.46 379.69 643.59C378.51 640.72 377.91 637.4 377.91 633.64C377.91 629.88 378.49 626.59 379.66 623.6C380.83 620.61 382.54 618.23 384.79 616.47C387.04 614.71 389.79 613.83 393.05 613.83C396.31 613.83 399 614.68 401.22 616.38C403.44 618.08 405.13 620.42 406.3 623.4C407.47 626.38 408.05 629.79 408.05 633.64C408.05 637.49 407.46 641.02 406.27 643.88H406.28Z" fill="white"/>
<path d="M435.05 609.04H430.09C429.792 609.04 429.55 609.282 429.55 609.58V658.15C429.55 658.448 429.792 658.69 430.09 658.69H435.05C435.348 658.69 435.59 658.448 435.59 658.15V609.58C435.59 609.282 435.348 609.04 435.05 609.04Z" fill="white"/>
<path d="M432.57 602C434.453 602 435.98 600.473 435.98 598.59C435.98 596.707 434.453 595.18 432.57 595.18C430.687 595.18 429.16 596.707 429.16 598.59C429.16 600.473 430.687 602 432.57 602Z" fill="white"/>
<path d="M481.79 610.49C479.26 609.08 476.31 608.38 472.93 608.38C469.17 608.38 465.83 609.34 462.92 611.27C460.59 612.81 458.76 615.12 457.43 618.19L457.4 609.59C457.4 609.29 457.16 609.05 456.86 609.05H452.12C451.82 609.05 451.58 609.29 451.58 609.59V658.16C451.58 658.46 451.82 658.7 452.12 658.7H457.08C457.38 658.7 457.62 658.46 457.62 658.16V627.75C457.62 624.91 458.22 622.44 459.42 620.36C460.62 618.27 462.25 616.67 464.33 615.56C466.4 614.45 468.74 613.89 471.35 613.89C475.17 613.89 478.22 615.07 480.5 617.42C482.78 619.77 483.92 622.98 483.92 627.03V658.15C483.92 658.45 484.16 658.69 484.46 658.69H489.38C489.68 658.69 489.92 658.45 489.92 658.15V626.58C489.92 622.64 489.2 619.33 487.77 616.63C486.33 613.94 484.35 611.89 481.82 610.48L481.79 610.49Z" fill="white"/>
<path d="M537.06 614.4C535.05 612.37 532.78 610.86 530.27 609.87C527.75 608.88 525.13 608.38 522.41 608.38C518.09 608.38 514.29 609.49 511.02 611.71C507.75 613.93 505.2 616.98 503.38 620.86C501.56 624.74 500.65 629.18 500.65 634.18C500.65 639.18 501.58 643.61 503.43 647.46C505.28 651.31 507.9 654.32 511.29 656.5C514.68 658.68 518.7 659.76 523.35 659.76C526.7 659.76 529.66 659.22 532.23 658.14C534.81 657.06 536.94 655.63 538.65 653.86C540.2 652.24 541.37 650.49 542.15 648.63C542.27 648.34 542.11 648.01 541.81 647.92L537.09 646.42C536.83 646.34 536.55 646.47 536.44 646.72C535.85 648 535.02 649.19 533.95 650.29C532.75 651.52 531.27 652.5 529.51 653.24C527.75 653.98 525.71 654.35 523.4 654.35C520 654.35 517.04 653.54 514.54 651.93C512.04 650.32 510.11 648.05 508.75 645.14C507.48 642.42 506.81 639.27 506.72 635.7H543.02C543.32 635.7 543.56 635.46 543.56 635.16V633.08C543.56 628.88 542.98 625.22 541.83 622.11C540.68 619 539.09 616.43 537.08 614.41L537.06 614.4ZM508.66 622.85C509.98 620.13 511.81 617.94 514.17 616.28C516.52 614.62 519.27 613.79 522.41 613.79C525.55 613.79 528.29 614.6 530.54 616.23C532.79 617.86 534.52 620.08 535.74 622.89C536.73 625.18 537.31 627.71 537.49 630.48H506.74C506.9 627.74 507.54 625.19 508.68 622.84L508.66 622.85Z" fill="white"/>
<path d="M394 544C397.32 544 400 541.32 400 538V452.98C400 449.8 398.74 446.74 396.48 444.5L371.5 419.52C369.24 417.26 366.2 416 363.02 416H308.96C305.78 416 302.72 417.26 300.48 419.52L275.5 444.5C273.24 446.76 271.98 449.8 271.98 452.98V538C271.98 541.32 274.66 544 277.98 544H394Z" fill="white"/>
<path d="M444.48 275.52L419.5 300.5C417.24 302.76 415.98 305.8 415.98 308.98V363.04C415.98 366.22 417.24 369.28 419.5 371.52L444.48 396.5C446.74 398.76 449.78 400.02 452.96 400.02H537.98C541.3 400.02 543.98 397.34 543.98 394.02V278.02C543.98 274.7 541.3 272.02 537.98 272.02H452.96C449.78 272.02 446.72 273.28 444.48 275.54V275.52Z" fill="white"/>
<path d="M278 128C274.68 128 272 130.68 272 134V219.02C272 222.2 273.26 225.26 275.52 227.5L300.5 252.48C302.76 254.74 305.8 256 308.98 256H363.04C366.22 256 369.28 254.74 371.52 252.48L396.5 227.5C398.76 225.24 400.02 222.2 400.02 219.02V134C400.02 130.68 397.34 128 394.02 128H278Z" fill="white"/>
<path d="M538 416H452.98C449.8 416 446.74 417.26 444.5 419.52L419.52 444.5C417.26 446.76 416 449.8 416 452.98V538C416 541.32 418.68 544 422 544H538C541.32 544 544 541.32 544 538V422C544 418.68 541.32 416 538 416Z" fill="white"/>
<path d="M250 128H164.98C161.78 128 158.74 129.26 156.48 131.52L131.52 156.48C129.26 158.74 128 161.78 128 164.98V250C128 253.32 130.68 256 134 256H219.02C222.2 256 225.26 254.74 227.5 252.48L252.48 227.5C254.74 225.24 256 222.2 256 219.02V134C256 130.68 253.32 128 250 128Z" fill="white"/>
<path d="M416 134V219.02C416 222.2 417.26 225.26 419.52 227.5L444.5 252.48C446.76 254.74 449.8 256 452.98 256H538C541.32 256 544 253.32 544 250V134C544 130.68 541.32 128 538 128H422C418.68 128 416 130.68 416 134Z" fill="white"/>
<path d="M336 368C318.32 368 304 353.68 304 336C304 318.32 318.34 304 336 304C353.66 304 368 318.32 368 336C368 353.68 353.66 368 336 368Z" fill="white"/>
<path d="M128 422V538C128 541.32 130.68 544 134 544H250C253.32 544 256 541.32 256 538V452.98C256 449.8 254.74 446.74 252.48 444.5L227.5 419.52C225.24 417.26 222.2 416 219.02 416H134C130.68 416 128 418.68 128 422Z" fill="white"/>
<path d="M252.48 300.48L227.5 275.5C225.24 273.24 222.2 271.98 219.02 271.98H134C130.68 272 128 274.68 128 278V394C128 397.32 130.68 400 134 400H220.4C223.58 400 226.64 398.74 228.88 396.48L252.48 372.9C254.74 370.64 256 367.6 256 364.42V308.98C256 305.8 254.74 302.74 252.48 300.5V300.48Z" fill="white"/>
</svg>
